<svg width="6" height="12" viewBox="0 0 6 12" fill="none" xmlns="http://www.w3.org/2000/svg">
<path d="M1.268 11.676V10.5H0.164V1.932H1.268V0.719999H2.036V1.932H2.132C2.404 1.932 2.652 1.944 2.876 1.968V0.719999H3.644V2.088C4.148 2.216 4.528 2.44 4.784 2.76C5.048 3.072 5.18 3.504 5.18 4.056C5.18 4.56 5.056 4.98 4.808 5.316C4.568 5.644 4.216 5.856 3.752 5.952V6.012C4.072 6.068 4.356 6.172 4.604 6.324C4.86 6.476 5.06 6.692 5.204 6.972C5.356 7.252 5.432 7.616 5.432 8.064C5.432 8.688 5.272 9.2 4.952 9.6C4.64 9.992 4.204 10.256 3.644 10.392V11.676H2.876V10.5C2.82 10.5 2.76 10.5 2.696 10.5H2.036V11.676H1.268ZM2.348 5.58C3.004 5.58 3.452 5.464 3.692 5.232C3.94 4.992 4.064 4.64 4.064 4.176C4.064 3.704 3.912 3.368 3.608 3.168C3.312 2.96 2.836 2.856 2.18 2.856H1.244V5.58H2.348ZM1.244 6.48V9.588H2.492C3.156 9.588 3.62 9.44 3.884 9.144C4.148 8.848 4.28 8.46 4.28 7.98C4.28 7.532 4.144 7.172 3.872 6.9C3.6 6.62 3.112 6.48 2.408 6.48H1.244Z" fill="#C04159"/>
</svg>
